<?xml version="1.0" encoding="iso-8859-1"?>
<!-- Uploaded to: SVG Repo, www.svgrepo.com, Generator: SVG Repo Mixer Tools -->
<svg fill="#000000" height="800px" width="800px" version="1.1" id="Layer_1" xmlns="http://www.w3.org/2000/svg" xmlns:xlink="http://www.w3.org/1999/xlink" 
	 viewBox="0 0 512 512" xml:space="preserve">
<g>
	<g>
		<path d="M123.725,311.337H44.389c-5.77,0-10.449,4.678-10.449,10.449c0,5.771,4.679,10.449,10.449,10.449h79.336
			c5.771,0,10.449-4.678,10.449-10.449C134.174,316.015,129.495,311.337,123.725,311.337z"/>
	</g>
</g>
<g>
	<g>
		<path d="M108.878,349.974h-0.158c-5.77,0-10.449,4.678-10.449,10.449s4.679,10.449,10.449,10.449h0.158
			c5.771,0,10.449-4.678,10.449-10.449S114.648,349.974,108.878,349.974z"/>
	</g>
</g>
<g>
	<g>
		<path d="M74.587,349.975H44.095c-5.77,0-10.449,4.678-10.449,10.449s4.679,10.449,10.449,10.449h30.492
			c5.77,0,10.449-4.678,10.449-10.449S80.357,349.975,74.587,349.975z"/>
	</g>
</g>
<g>
	<g>
		<path d="M296.881,395.226h-0.157c-5.77,0-10.449,4.678-10.449,10.449s4.679,10.449,10.449,10.449h0.157
			c5.77,0,10.449-4.678,10.449-10.449S302.651,395.226,296.881,395.226z"/>
	</g>
</g>
<g>
	<g>
		<path d="M296.881,436.68h-0.157c-5.77,0-10.449,4.678-10.449,10.449s4.679,10.449,10.449,10.449h0.157
			c5.77,0,10.449-4.678,10.449-10.449S302.651,436.68,296.881,436.68z"/>
	</g>
</g>
<g>
	<g>
		<path d="M400.693,425.359h0.01H400.693z"/>
	</g>
</g>
<g>
	<g>
		<path d="M400.485,472.673h0.01H400.485z"/>
	</g>
</g>
<g>
	<g>
		<path d="M10.586,481.611h-0.137C4.679,481.611,0,486.289,0,492.06s4.679,10.449,10.449,10.449h0.137
			c5.77,0,10.449-4.678,10.449-10.449S16.356,481.611,10.586,481.611z"/>
	</g>
</g>
<g>
	<g>
		<path d="M501.551,481.611h-0.137c-5.77,0-10.449,4.678-10.449,10.449s4.679,10.449,10.449,10.449h0.137
			c5.77,0,10.449-4.678,10.449-10.449S507.321,481.611,501.551,481.611z"/>
	</g>
</g>
<g>
	<g>
		<path d="M294.107,202.623c-6.44,0-11.68,5.239-11.68,11.68c0,6.44,5.24,11.679,11.68,11.679s11.678-5.239,11.679-11.679
			C305.786,207.862,300.547,202.623,294.107,202.623z"/>
	</g>
</g>
<g>
	<g>
		<path d="M217.893,202.623c-6.44,0-11.679,5.239-11.679,11.68c0,6.44,5.239,11.679,11.679,11.679s11.68-5.239,11.68-11.679
			C229.572,207.862,224.332,202.623,217.893,202.623z"/>
	</g>
</g>
<g>
	<g>
		<path d="M266.255,251.854h-20.422c-5.77,0-10.449,4.678-10.449,10.449c0,11.391,9.268,20.66,20.66,20.66s20.659-9.267,20.66-20.66
			C276.704,256.532,272.025,251.854,266.255,251.854z"/>
	</g>
</g>
<g>
	<g>
		<path d="M448.351,269.525c-34.59,0-62.733,28.142-62.733,62.734c0,31.365,23.138,57.427,53.242,62.015v58.43
			c0,5.771,4.679,10.449,10.449,10.449c5.77,0,10.449-4.678,10.449-10.449v-58.77c29.161-5.382,51.326-30.98,51.326-61.674
			C511.085,297.667,482.942,269.525,448.351,269.525z M448.351,374.093c-23.067,0-41.835-18.766-41.835-41.835
			c0-23.068,18.767-41.836,41.835-41.836c23.068,0,41.836,18.767,41.836,41.836C490.187,355.327,471.419,374.093,448.351,374.093z"
			/>
	</g>
</g>
<g>
	<g>
		<path d="M449.309,299.261c-5.77,0-10.449,4.678-10.449,10.449v22.549c0,5.771,4.679,10.449,10.449,10.449
			c5.77,0,10.449-4.678,10.449-10.449V309.71C459.758,303.939,455.079,299.261,449.309,299.261z"/>
	</g>
</g>
<g>
	<g>
		<path d="M449.309,347.179c-5.77,0-10.449,4.678-10.449,10.449v0.204c0,5.771,4.679,10.449,10.449,10.449
			c5.77,0,10.449-4.678,10.449-10.449v-0.204C459.758,351.857,455.079,347.179,449.309,347.179z"/>
	</g>
</g>
<g>
	<g>
		<path d="M369.59,436.68h-39.203c-5.77,0-10.449,4.678-10.449,10.449s4.679,10.449,10.449,10.449h39.203
			c5.77,0,10.449-4.678,10.449-10.449S375.36,436.68,369.59,436.68z"/>
	</g>
</g>
<g>
	<g>
		<path d="M467.661,481.611h-58.022V410.96c0-20.368-12.292-39.713-29.89-47.047l-46.729-19.47l62.348-52.433
			c2.24-1.884,3.588-4.622,3.715-7.547c0.125-2.925-0.981-5.769-3.051-7.839l-32.516-32.516c11.978-5.22,20.38-17.159,20.38-31.038
			c0-15.022-9.836-27.791-23.405-32.205v-10.303c12.109-3.83,22.003-7.735,29.337-10.946c14.059-6.156,59.93-28.226,59.93-53.747
			c0-19.627-24.061-23.906-31.968-25.313c-12.699-2.258-29.802-3.326-56.375-3.484l-13.289-45.64
			c-2.443-8.391-8.38-15.334-16.289-19.052C323.927,8.665,314.794,8.526,306.78,12l-50.735,21.984L205.32,12
			c-8.019-3.474-17.154-3.332-25.065,0.383c-7.911,3.718-13.85,10.661-16.293,19.052l-13.281,45.638
			c-26.675,0.159-43.81,1.234-56.536,3.516c-21.102,3.785-31.801,12.29-31.801,25.281c0,25.523,45.871,47.592,59.93,53.747
			c7.313,3.202,17.171,7.095,29.235,10.914v10.334c-13.569,4.414-23.405,17.182-23.405,32.205c0,3.312,0.503,6.505,1.394,9.533
			h-4.002v-1.037c0-5.771-4.679-10.449-10.449-10.449c-5.77,0-10.449,4.678-10.449,10.449v1.037H86.27v-1.037
			c0-5.771-4.679-10.449-10.449-10.449c-5.77,0-10.449,4.678-10.449,10.449v1.037h-18.33v-0.96c0-5.771-4.679-10.449-10.449-10.449
			s-10.449,4.678-10.449,10.449v0.96h-15.63c-5.77,0-10.449,4.678-10.449,10.449v214.243c0,5.771,4.679,10.449,10.449,10.449h91.845
			v23.865h-57.92c-5.77,0-10.449,4.678-10.449,10.449s4.679,10.449,10.449,10.449h423.22c5.77,0,10.449-4.678,10.449-10.449
			S473.432,481.611,467.661,481.611z M184.029,37.277c0.777-2.67,2.593-4.793,5.116-5.978c2.52-1.184,5.315-1.229,7.871-0.121
			l54.778,23.74c1.312,0.57,2.726,0.863,4.158,0.863h0.189c1.428,0,2.843-0.294,4.155-0.861l54.795-23.743
			c2.552-1.106,5.343-1.064,7.859,0.12c2.519,1.184,4.334,3.307,5.114,5.98l18.894,64.887
			c-29.485,9.047-60.017,13.628-90.904,13.628c-15.546,0-31.242-1.19-46.656-3.535c-14.932-2.275-29.773-5.662-44.247-10.096
			L184.029,37.277z M130.658,140.476c-35.336-15.473-46.879-30.208-47.397-34.332c0.797-0.804,4.727-3.81,20.221-5.854
			c9.989-1.317,22.956-2.039,41.103-2.262l-2.335,8.026c-1.56,5.36,1.37,11.001,6.652,12.807
			c18.614,6.363,37.908,11.092,57.348,14.054c16.452,2.504,33.207,3.773,49.802,3.773c36.518,0,72.568-5.998,107.151-17.828
			c5.283-1.807,8.211-7.447,6.651-12.806l-2.337-8.027c18.064,0.223,30.987,0.938,40.948,2.241
			c15.631,2.044,19.579,5.07,20.378,5.874c-0.51,4.115-12.048,18.854-47.398,34.333c-21.441,9.388-66.241,25.138-125.393,25.138
			S152.099,149.864,130.658,140.476z M161.959,200.117c5.77,0,10.449-4.678,10.449-10.449V176.4
			c23.03,5.675,51.345,10.113,83.643,10.113c32.25,0,60.53-4.424,83.541-10.087v13.243c0,5.771,4.679,10.449,10.449,10.449
			c7.144,0,12.956,5.813,12.956,12.956c0,7.143-5.813,12.956-12.956,12.956c-5.77,0-10.449,4.678-10.449,10.449v17.052
			c-0.949,11.05-6.443,21.176-14.421,26.577l-56.099,32.167c-0.19,0.11-0.377,0.225-0.56,0.346c-7.835,5.173-17.185,5.173-25.02,0
			c-0.187-0.123-0.377-0.241-0.573-0.352l-56.265-32.164c-7.984-5.406-13.285-15.293-14.246-26.572v-17.054
			c0-5.771-4.679-10.449-10.449-10.449c-7.144,0-12.956-5.813-12.956-12.956C149.003,205.929,154.815,200.117,161.959,200.117z
			 M107.389,388.615H43.736c-5.77,0-10.449,4.678-10.449,10.449s4.679,10.449,10.449,10.449h58.651
			c-0.014,0.482-0.027,0.963-0.027,1.447v25.887H20.964V243.503h5.181v0.95c0,5.771,4.679,10.449,10.449,10.449
			s10.449-4.678,10.449-10.449v-0.95h18.329v0.874c0,5.771,4.679,10.449,10.449,10.449c5.77,0,10.449-4.678,10.449-10.449v-0.874
			h18.33v0.874c0,5.771,4.679,10.449,10.449,10.449c5.77,0,10.449-4.678,10.449-10.449v-0.874h21.674
			c0.516,0.252,1.034,0.497,1.564,0.723l-28.467,28.469H44.389c-5.77,0-10.449,4.678-10.449,10.449s4.679,10.449,10.449,10.449
			h74.491l60.346,50.749l-46.974,19.573C121.398,368.437,112.568,377.533,107.389,388.615z M245.602,481.611H123.259V410.96
			c0-11.777,7.322-23.71,17.031-27.756l56.939-23.724l48.374,40.681V481.611z M139.168,283.349l14.969-14.969
			c3.785,12.244,11.249,22.726,21.256,29.333c0.187,0.124,0.377,0.241,0.573,0.352l56.307,32.189
			c7.335,4.764,15.53,7.145,23.728,7.145c8.199,0,16.398-2.383,23.734-7.149l56.142-32.192c0.19-0.11,0.377-0.225,0.56-0.346
			c10.158-6.708,17.717-17.299,21.498-29.627l15.263,15.263l-117.014,98.406L139.168,283.349z M388.742,481.611h-0.001H266.5
			v-81.227l48.518-40.801l56.694,23.622c9.708,4.045,17.03,15.978,17.03,27.756V481.611z"/>
	</g>
</g>
</svg>