<?xml version="1.0" encoding="iso-8859-1"?>
<!-- Uploaded to: SVG Repo, www.svgrepo.com, Generator: SVG Repo Mixer Tools -->
<svg fill="#000000" height="800px" width="800px" version="1.1" id="Layer_1" xmlns="http://www.w3.org/2000/svg" xmlns:xlink="http://www.w3.org/1999/xlink" 
	 viewBox="0 0 512 512" xml:space="preserve">
<g>
	<g>
		<path d="M10.584,490.965h-0.137C4.677,490.965,0,495.642,0,501.412c0,5.77,4.677,10.447,10.447,10.447h0.137
			c5.77,0,10.447-4.677,10.447-10.447C21.032,495.642,16.354,490.965,10.584,490.965z"/>
	</g>
</g>
<g>
	<g>
		<path d="M501.479,490.965h-0.137c-5.77,0-10.447,4.677-10.447,10.447c0,5.77,4.677,10.447,10.447,10.447h0.137
			c5.77,0,10.447-4.677,10.447-10.447C511.927,495.642,507.25,490.965,501.479,490.965z"/>
	</g>
</g>
<g>
	<g>
		<path d="M266.219,261.244h-20.418c-5.77,0-10.447,4.677-10.447,10.447c0,11.39,9.267,20.657,20.657,20.657
			c11.39,0,20.657-9.267,20.657-20.657C276.667,265.921,271.989,261.244,266.219,261.244z"/>
	</g>
</g>
<g>
	<g>
		<path d="M464.695,134.276c-22.47,0-40.752,18.281-40.752,40.752s18.281,40.753,40.752,40.753
			c22.471,0,40.753-18.283,40.753-40.753C505.448,152.557,487.166,134.276,464.695,134.276z M464.695,194.885
			c-10.949,0-19.857-8.909-19.857-19.858c0-10.949,8.909-19.857,19.857-19.857c10.95,0,19.858,8.908,19.858,19.857
			C484.554,185.976,475.645,194.885,464.695,194.885z"/>
	</g>
</g>
<g>
	<g>
		<path d="M43.878,115.556C19.683,115.556,0,135.24,0,159.434s19.683,43.877,43.878,43.877c24.194,0,43.878-19.683,43.878-43.877
			S68.073,115.556,43.878,115.556z M43.878,182.417c-12.673,0-22.983-10.31-22.983-22.983s10.31-22.983,22.983-22.983
			c12.672,0,22.982,10.311,22.983,22.983C66.861,172.107,56.551,182.417,43.878,182.417z"/>
	</g>
</g>
<g>
	<g>
		<path d="M96.272,5.213c-16.692,0-30.272,13.579-30.272,30.271S79.58,65.756,96.272,65.756s30.272-13.579,30.272-30.271
			C126.544,18.793,112.963,5.213,96.272,5.213z M96.272,44.863c-5.171,0-9.378-4.206-9.378-9.378c0-5.172,4.207-9.378,9.378-9.378
			s9.378,4.206,9.378,9.378S101.443,44.863,96.272,44.863z"/>
	</g>
</g>
<g>
	<g>
		<path d="M481.728,42.043c-16.692,0-30.272,13.581-30.272,30.272s13.581,30.272,30.272,30.272S512,89.007,512,72.315
			S498.419,42.043,481.728,42.043z M481.728,81.694c-5.171,0-9.378-4.206-9.378-9.378s4.207-9.378,9.378-9.378
			s9.378,4.206,9.378,9.378S486.899,81.694,481.728,81.694z"/>
	</g>
</g>
<g>
	<g>
		<path d="M410.597,0.141c-19.034,0-34.519,15.485-34.519,34.518s15.485,34.518,34.519,34.518c19.033,0,34.518-15.485,34.518-34.518
			S429.63,0.141,410.597,0.141z M410.597,48.282c-7.513,0-13.624-6.112-13.624-13.623s6.113-13.623,13.624-13.623
			c7.513,0,13.623,6.112,13.623,13.623S418.109,48.282,410.597,48.282z"/>
	</g>
</g>
<g>
	<g>
		<path d="M39.129,338.782c-5.77,0-10.447,4.677-10.447,10.447v0.137c0,5.77,4.677,10.447,10.447,10.447
			c5.77,0,10.447-4.677,10.447-10.447v-0.137C49.576,343.459,44.899,338.782,39.129,338.782z"/>
	</g>
</g>
<g>
	<g>
		<path d="M39.129,372.717c-5.77,0-10.447,4.677-10.447,10.447v43.014c0,5.77,4.677,10.447,10.447,10.447
			c5.77,0,10.447-4.677,10.447-10.447v-43.014C49.576,377.394,44.899,372.717,39.129,372.717z"/>
	</g>
</g>
<g>
	<g>
		<path d="M294.068,212.02c-6.44,0-11.678,5.238-11.678,11.678c0,6.439,5.238,11.677,11.678,11.677
			c6.44,0,11.678-5.238,11.678-11.677C305.746,217.258,300.507,212.02,294.068,212.02z"/>
	</g>
</g>
<g>
	<g>
		<path d="M217.865,212.02c-6.44,0-11.678,5.238-11.678,11.678c0,6.439,5.238,11.677,11.678,11.677s11.678-5.238,11.678-11.677
			S224.305,212.02,217.865,212.02z"/>
	</g>
</g>
<g>
	<g>
		<path d="M102.408,224.959H28.332c-15.286,0-28.275,12.436-28.275,27.72v194.378c0,10.961,8.918,19.879,19.879,19.879h60.618
			c5.77,0,10.447-4.677,10.447-10.447V339.734c0-20.217-13.758-37.272-32.4-42.318v-15.331h43.808
			c5.77,0,10.447-4.677,10.447-10.447v-36.233C112.856,229.636,108.178,224.959,102.408,224.959z M20.951,282.662h16.755v13.229
			H20.951V282.662z M70.106,339.734v106.307H20.951V316.786h26.208C59.812,316.786,70.106,327.081,70.106,339.734z M91.962,261.191
			h-0.001H21.506v-8.511c0-3.764,3.062-6.825,6.826-6.825h63.63V261.191z"/>
	</g>
</g>
<g>
	<g>
		<path d="M501.531,245.571h-94.128c-5.77,0-10.447,4.677-10.447,10.447v74.122c0,28.138,20.325,51.604,47.063,56.532v4.345h-0.747
			c-5.77,0-10.447,4.677-10.447,10.447s4.677,10.447,10.447,10.447h0.747v79.052h-34.438v-70.64
			c0-20.364-12.29-39.707-29.887-47.039l-67.237-28.015c-2.39-0.996-3.936-3.313-3.936-5.904v-16.269l27.308-15.659
			c0.19-0.109,0.377-0.225,0.561-0.346c13.674-9.03,22.653-25.089,24.018-42.959c0.021-0.264,0.03-0.531,0.03-0.796v-8.673
			c6.116-1.989,11.46-5.687,15.5-10.512c0.802-0.524,1.551-1.157,2.208-1.919c3.174-3.69,6.127-7.53,8.78-11.415
			c12.966-18.986,19.541-39.89,19.541-62.133c0-27.687-9.718-54.643-27.48-76.577c1.5-5.137,2.275-10.488,2.275-15.905
			c0-31.29-25.456-56.745-56.745-56.745c-6.813,0-13.551,1.23-19.883,3.599C292.731,8.736,274.823,0.141,255.966,0.141
			c-19.118,0-36.703,8.38-48.615,22.806c-6.243-2.294-12.874-3.484-19.57-3.484c-31.29,0-56.745,25.456-56.745,56.745
			c0,5.36,0.757,10.654,2.225,15.74c-17.847,21.966-27.613,48.982-27.613,76.741c0,21.707,6.269,42.159,18.634,60.787
			c2.007,3.025,4.201,6.032,6.52,8.94c0.785,0.983,1.71,1.784,2.726,2.404c4.188,6.462,10.506,11.422,17.964,13.848v8.673
			c0,0.265,0.01,0.532,0.03,0.796c1.372,17.942,10.288,34.001,23.85,42.959c0.187,0.123,0.378,0.24,0.573,0.352l27.465,15.701
			v16.219c0,2.59-1.545,4.907-3.936,5.904l-67.238,28.016c-17.597,7.333-29.886,26.675-29.886,47.038v70.64H44.383
			c-5.77,0-10.447,4.677-10.447,10.447s4.677,10.447,10.447,10.447h423.161c5.77,0,10.447-4.677,10.447-10.447
			s-4.677-10.447-10.447-10.447h-2.63v-79.052h0.747c5.77,0,10.447-4.677,10.447-10.447s-4.677-10.447-10.447-10.447h-0.747v-4.345
			c26.739-4.929,47.063-28.394,47.063-56.532v-74.122C511.978,250.249,507.301,245.571,501.531,245.571z M187.781,40.357
			c6.257,0,12.425,1.645,17.836,4.758c4.924,2.832,11.208,1.213,14.148-3.647c7.74-12.794,21.274-20.431,36.201-20.431
			c14.986,0,28.545,7.685,36.273,20.558c2.945,4.907,9.29,6.531,14.229,3.643c5.463-3.193,11.704-4.88,18.05-4.88
			c19.768,0,35.85,16.083,35.85,35.85c0,3.794-0.599,7.536-1.758,11.098C325.949,74.799,291.53,68.464,256.15,68.464
			c-35.38,0-69.799,6.334-102.461,18.842c-1.16-3.563-1.758-7.304-1.758-11.098C151.931,56.439,168.014,40.357,187.781,40.357z
			 M133.862,203.625c-4.86-11.082-7.319-22.777-7.319-34.936c0-21.021,6.463-40.871,18.754-58.072
			c2.311,0.738,4.877,0.676,7.253-0.328c32.807-13.889,67.663-20.93,103.6-20.93c35.937,0,70.792,7.042,103.6,20.93
			c1.324,0.56,2.705,0.827,4.069,0.827c1.031,0,2.047-0.17,3.023-0.467c12.276,17.193,18.731,37.034,18.731,58.038
			c0,12.222-2.483,23.97-7.392,35.099c-4.188-6.3-10.411-11.136-17.741-13.521V176.98c0-5.77-4.677-10.447-10.447-10.447h-73.327
			v-21.812c0-4.65-3.073-8.74-7.539-10.034c-4.465-1.295-9.25,0.519-11.737,4.446l-17.343,27.4h-78.109
			c-5.77,0-10.447,4.677-10.447,10.447v13.286C144.226,192.631,138.051,197.406,133.862,203.625z M186.631,289.487
			c-7.984-5.405-13.283-15.291-14.244-26.568v-17.05c0-5.77-4.677-10.447-10.447-10.447c-7.143,0-12.954-5.812-12.954-12.954
			c0-7.142,5.812-12.954,12.954-12.954c5.77,0,10.447-4.677,10.447-10.447v-11.636h73.414c3.581,0,6.913-1.833,8.828-4.86
			l1.598-2.526c1.309,4.276,5.287,7.386,9.992,7.386h73.327v11.636c0,5.77,4.677,10.447,10.447,10.447
			c7.143,0,12.954,5.812,12.954,12.954c0,7.142-5.812,12.954-12.954,12.954c-5.77,0-10.447,4.677-10.447,10.447v17.049
			c-0.949,11.047-6.442,21.172-14.417,26.573l-56.092,32.163c-0.191,0.11-0.377,0.225-0.561,0.346
			c-7.83,5.172-17.183,5.174-25.016,0c-0.187-0.123-0.377-0.24-0.573-0.352L186.631,289.487z M287.628,335.079v21.408
			c0,17.378-14.18,31.517-31.611,31.517c-17.486,0-31.712-14.138-31.712-31.517v-21.394l7.938,4.538
			c7.333,4.763,15.528,7.144,23.724,7.144c8.198,0,16.395-2.383,23.729-7.148L287.628,335.079z M123.246,490.965v-70.64
			c0-11.775,7.32-23.706,17.028-27.751l4.87-2.029c2.153,4.627,3.276,9.655,3.276,14.854v85.566H123.246z M312.433,490.965H199.867
			v-24.029h112.566V490.965z M342.618,405.399v85.567h-9.29v-34.476c0-5.77-4.677-10.447-10.447-10.447H189.419
			c-5.77,0-10.447,4.677-10.447,10.447v34.476h-9.656v-85.567c0-8.003-1.666-15.745-4.868-22.896l39.831-16.596
			c4.468,24.418,25.961,42.992,51.74,42.992c25.73,0,47.179-18.574,51.639-42.992l39.83,16.595
			C344.284,389.653,342.618,397.396,342.618,405.399z M388.688,490.965L388.688,490.965h-25.176v-85.567
			c0-5.199,1.123-10.226,3.277-14.854l4.871,2.029c9.708,4.045,17.028,15.975,17.028,27.751V490.965z M491.084,330.141h-0.001
			c0,16.556-11.054,30.572-26.169,35.079v-1.615c0-5.77-4.677-10.447-10.447-10.447c-5.77,0-10.447,4.677-10.447,10.447v1.615
			c-15.115-4.507-26.169-18.523-26.169-35.079v-63.675h6.37v42.018c0,5.77,4.677,10.447,10.447,10.447
			c5.77,0,10.447-4.677,10.447-10.447v-42.018h6.616v22.864c0,5.77,4.677,10.447,10.447,10.447c5.77,0,10.447-4.677,10.447-10.447
			v-22.864h18.457V330.141z"/>
	</g>
</g>
</svg>