<?xml version="1.0" encoding="iso-8859-1"?>
<!-- Uploaded to: SVG Repo, www.svgrepo.com, Generator: SVG Repo Mixer Tools -->
<svg fill="#000000" height="800px" width="800px" version="1.1" id="Layer_1" xmlns="http://www.w3.org/2000/svg" xmlns:xlink="http://www.w3.org/1999/xlink" 
	 viewBox="0 0 512 512" xml:space="preserve">
<g>
	<g>
		<path d="M500.642,255.783c-15.143-15.142-39.784-15.142-54.929,0.002l-46.742,46.743c-15.143,15.145-15.144,39.785-0.002,54.929
			c7.571,7.571,17.517,11.356,27.464,11.356s19.894-3.786,27.467-11.357l46.743-46.743
			C515.786,295.568,515.786,270.927,500.642,255.783z M439.125,342.679c-7,6.998-18.386,6.999-25.382,0.001
			c-6.997-6.995-6.995-18.381,0.002-25.379l15.984-15.984l25.378,25.379L439.125,342.679z M485.866,295.937l-15.984,15.984
			l-25.378-25.378l15.983-15.983c6.998-6.997,18.383-6.999,25.38-0.001C492.864,277.554,492.864,288.94,485.866,295.937z"/>
	</g>
</g>
<g>
	<g>
		<path d="M263.463,391.3c-4.07-4.092-10.684-4.108-14.775-0.04l-0.097,0.097c-4.091,4.069-4.109,10.684-0.04,14.775
			c2.042,2.053,4.724,3.08,7.407,3.08c2.664,0,5.33-1.012,7.367-3.04l0.097-0.097C267.514,402.005,267.532,395.39,263.463,391.3z"/>
	</g>
</g>
<g>
	<g>
		<path d="M263.347,391.376l-0.097-0.097c-4.081-4.08-10.696-4.08-14.776,0c-4.08,4.081-4.08,10.696,0,14.776l0.097,0.097
			c2.039,2.04,4.714,3.06,7.387,3.06c2.674,0,5.348-1.02,7.388-3.06C267.426,402.071,267.426,395.455,263.347,391.376z"/>
	</g>
</g>
<g>
	<g>
		<path d="M282.204,55.65h-15.798V39.851c0-5.77-4.677-10.447-10.447-10.447c-5.77,0-10.447,4.677-10.447,10.447V55.65h-15.798
			c-5.77,0-10.447,4.677-10.447,10.447c0,5.77,4.677,10.447,10.447,10.447h15.798v15.799c0,5.77,4.677,10.447,10.447,10.447
			c5.77,0,10.447-4.677,10.447-10.447V76.544h15.798c5.77,0,10.447-4.677,10.447-10.447C292.651,60.327,287.974,55.65,282.204,55.65
			z"/>
	</g>
</g>
<g>
	<g>
		<path d="M263.347,443.029l-0.097-0.097c-4.081-4.08-10.696-4.08-14.776,0c-4.08,4.081-4.08,10.696,0,14.776l0.097,0.097
			c2.039,2.04,4.714,3.06,7.387,3.06c2.674,0,5.348-1.02,7.388-3.06C267.426,453.724,267.426,447.109,263.347,443.029z"/>
	</g>
</g>
<g>
	<g>
		<path d="M10.584,491.065h-0.137C4.677,491.065,0,495.742,0,501.512c0,5.77,4.677,10.447,10.447,10.447h0.137
			c5.77,0,10.447-4.677,10.447-10.447C21.031,495.742,16.354,491.065,10.584,491.065z"/>
	</g>
</g>
<g>
	<g>
		<path d="M501.469,491.065h-0.137c-5.77,0-10.447,4.677-10.447,10.447c0,5.77,4.677,10.447,10.447,10.447h0.137
			c5.77,0,10.447-4.677,10.447-10.447C511.916,495.742,507.239,491.065,501.469,491.065z"/>
	</g>
</g>
<g>
	<g>
		<path d="M467.533,491.065h-57.96v-70.639c0-20.364-12.29-39.707-29.887-47.039l-34.148-14.228
			c16.891-15.584,31.098-35.565,41.465-58.5c12.607-27.889,19.27-59.634,19.27-91.804c0-53.611-18.367-104.172-50.546-139.595
			l3.635-34.053c0.45-4.216-1.692-8.286-5.422-10.301C323.897,8.677,289.877,0.078,255.558,0.041c-0.076,0-0.149,0-0.226,0
			c-33.829,0-67.442,8.345-97.214,24.137c-3.762,1.995-5.937,6.075-5.495,10.311l3.616,34.711
			c-32.21,35.428-50.597,86.009-50.597,139.653c0,60.162,22.695,115.16,61.287,150.074l-34.699,14.459
			c-17.596,7.333-29.885,26.675-29.885,47.038v70.639H44.383c-5.77,0-10.447,4.677-10.447,10.447s4.677,10.447,10.447,10.447h423.15
			c5.77,0,10.447-4.677,10.447-10.447S473.303,491.065,467.533,491.065z M339.359,134.596c5.34,0,9.821-3.982,10.388-9.294
			l2.831-26.526c21.041,30.149,32.802,69.04,32.802,110.079c0,57.266-23.507,111.222-61.432,141.308l-11.498-4.791
			c-2.39-0.996-3.935-3.313-3.935-5.904V323.2l27.308-15.658c0.19-0.109,0.377-0.225,0.561-0.346
			c13.641-9.009,22.61-25.013,24.008-42.831c0.025-0.29,0.04-0.585,0.041-0.882c0-0.001,0-0.003,0-0.004c0-0.002,0-0.005,0-0.007
			c0-0.003,0-0.006,0-0.009c0-0.001,0-0.004,0-0.005c0-0.005,0-0.009,0-0.015v-94.715c0-5.77-4.677-10.447-10.447-10.447h-56.482
			l5.134-22.002c0.131-0.56,0.355-1.682,0.355-1.682h40.356C339.352,134.596,339.356,134.596,339.359,134.596z M272.151,175.222
			c1.982,2.498,4.996,3.953,8.183,3.953h59.202v83.846c-0.949,11.048-6.442,21.172-14.417,26.573l-56.091,32.162
			c-0.191,0.11-0.377,0.225-0.561,0.346c-7.83,5.172-17.183,5.173-25.016,0c-0.187-0.124-0.377-0.241-0.573-0.352l-56.254-32.16
			c-7.984-5.405-13.283-15.291-14.244-26.567v-83.847h73.131c2.396,0,4.719-0.823,6.58-2.332l19.269-15.623l-1.197,5.134
			C269.437,169.459,270.17,172.724,272.151,175.222z M255.332,20.937c0.067,0,0.136,0,0.203,0
			c28.539,0.031,56.841,6.639,82.292,19.164l-7.861,73.635l-148.099-0.164l-7.717-74.094
			C199.332,27.328,227.244,20.937,255.332,20.937z M126.536,208.856c0-41.03,11.754-79.91,32.786-110.054l2.738,26.292
			c0.554,5.318,5.033,9.467,10.379,9.474h98.617l-29.248,23.714h-79.876c-5.77,0-10.447,4.677-10.447,10.447v94.715
			c0,0.265,0.01,0.532,0.03,0.796c1.372,17.942,10.287,34.001,23.85,42.958c0.187,0.123,0.378,0.24,0.573,0.352l27.465,15.701
			v16.218c0,2.59-1.545,4.907-3.935,5.904l-10.838,4.516C149.719,319.618,126.536,267.079,126.536,208.856z M123.238,491.065
			v-70.639c0-11.775,7.32-23.706,17.028-27.751l66.937-27.89l17.372,17.372c2.04,2.04,4.714,3.06,7.387,3.06s5.348-1.021,7.387-3.06
			c4.08-4.08,4.08-10.695,0-14.775l-17.234-17.234c1.405-3.311,2.182-6.923,2.182-10.679v-4.274l7.937,4.537
			c7.334,4.763,15.529,7.144,23.724,7.144c8.198,0,16.395-2.383,23.729-7.148l7.932-4.548v4.288c0,3.755,0.777,7.367,2.181,10.678
			l-17.234,17.235c-4.08,4.08-4.08,10.695,0,14.775c2.04,2.04,4.714,3.06,7.387,3.06c2.674,0,5.348-1.021,7.387-3.06l17.371-17.371
			l66.938,27.89c9.708,4.045,17.028,15.975,17.028,27.751v70.639H123.238z"/>
	</g>
</g>
<g>
	<g>
		<path d="M294.058,212.123c-6.44,0-11.678,5.238-11.678,11.678c0,6.439,5.238,11.677,11.678,11.677
			c6.44,0,11.678-5.238,11.678-11.677C305.736,217.361,300.498,212.123,294.058,212.123z"/>
	</g>
</g>
<g>
	<g>
		<path d="M217.858,212.123c-6.44,0-11.678,5.238-11.678,11.678c0,6.439,5.238,11.677,11.678,11.677
			c6.439,0,11.677-5.238,11.678-11.677C229.536,217.361,224.298,212.123,217.858,212.123z"/>
	</g>
</g>
<g>
	<g>
		<path d="M266.211,261.345h-20.418c-5.77,0-10.447,4.677-10.447,10.447c0,11.39,9.267,20.656,20.656,20.656
			c11.39,0,20.655-9.266,20.656-20.656C276.659,266.022,271.981,261.345,266.211,261.345z"/>
	</g>
</g>
<g>
	<g>
		<path d="M96.706,286.64l-0.001-130.916c0-5.77-4.677-10.447-10.447-10.447h-8.706v-18.015c0-5.77-4.677-10.447-10.447-10.447
			h-3.377V86.755c0-5.77-4.677-10.447-10.447-10.447c-5.77,0-10.447,4.677-10.447,10.447v30.058h-2.889
			c-5.77,0-10.447,4.677-10.447,10.447v18.015h-9.197c-5.77,0-10.447,4.677-10.447,10.447v130.915
			C4.362,286.947,0,291.485,0,297.055c0,5.769,4.677,10.447,10.447,10.447l32.387,0.003v16.327l-13.738-0.001
			c-5.769,0-10.447,4.677-10.447,10.447c0,5.77,4.677,10.447,10.447,10.447l48.37,0.003c5.769,0,10.447-4.677,10.447-10.447
			c0-5.77-4.677-10.447-10.447-10.447l-13.737-0.001v-16.328h32.387c5.769,0,10.447-4.677,10.447-10.447
			C106.562,291.487,102.199,286.948,96.706,286.64z M50.392,137.709h2.454c0.145,0.006,0.287,0.022,0.435,0.022
			c0.147,0,0.289-0.016,0.435-0.022h2.942v7.568h-6.265V137.709z M42.834,286.608H30.748v-41.497h12.085V286.608z M30.747,224.217
			V166.17h45.063v0.001v58.047L30.747,224.217z M75.812,286.61H63.728v-41.497h12.083V286.61z"/>
	</g>
</g>
</svg>